<svg xmlns="http://www.w3.org/2000/svg" viewBox="0 0 96 24" role="img" aria-labelledby="title">
  <title>Trakt</title>
  <rect x="1" y="3" width="18" height="18" rx="5" fill="#7c3aed"/>
  <path d="M6 12.5l3.1 3.1L15 9.2" fill="none" stroke="#fff" stroke-linecap="round" stroke-linejoin="round" stroke-width="2.4"/>
  <path d="M27.8 17V8.6h-3.1V6h9.2v2.6h-3.1V17h-2.9zm8.4 0V6h5c2.8 0 4.3 1.4 4.3 3.8 0 1.6-.7 2.7-2 3.3L46 17h-3.2l-2.1-3.3H39V17h-2.8zm2.8-5.7h1.8c1.3 0 1.9-.5 1.9-1.5s-.7-1.5-1.9-1.5H39v3zm11.3 5.9c-2.4 0-4-1.2-4-3.2 0-2.1 1.7-3.1 4.8-3.1h1.9v-.4c0-1-.6-1.5-1.7-1.5-1 0-1.6.4-1.8 1.1h-2.7c.2-2.4 2.1-4 4.6-4 2.8 0 4.5 1.4 4.5 4V17h-2.5l-.2-1.2c-.7.9-1.8 1.4-2.9 1.4zm.8-2.3c1.1 0 1.9-.8 1.9-1.9v-.3h-1.5c-1.4 0-2 .4-2 1.2 0 .6.5 1 1.6 1zm9.8 2.3c-2.9 0-4.8-2.2-4.8-5.6s1.9-5.6 4.9-5.6c2.4 0 4.1 1.5 4.4 3.9h-2.7c-.2-.9-.8-1.4-1.7-1.4-1.3 0-2 1-2 3.1s.7 3.1 2 3.1c1 0 1.6-.5 1.8-1.5h2.7c-.3 2.5-2 4-4.5 4zm6.4-.2V6h2.8v6l3-3.7h3.3l-3.6 4.2 3.7 4.5h-3.4l-3-3.9V17h-2.8z" fill="#f8fafc"/>
</svg>
